<svg xmlns="http://www.w3.org/2000/svg" viewBox="0 0 36 36" height="160" width="160"><path d="M18 36c9.941 0 18-8.059 18-18S27.941 0 18 0 0 8.059 0 18s8.059 18 18 18z" fill="red"></path><g clip-path="url(#prefix__clip0)"><path d="M15.707 18.293C12.452 15.038 7.221 15 7 15a1 1 0 00-.001 2c.029 0 1.925.022 3.983.737-.593.64-.982 1.634-.982 2.763 0 1.934 1.119 3.5 2.5 3.5s2.5-1.566 2.5-3.5c0-.174-.019-.34-.037-.507.013 0 .025.007.037.007a.999.999 0 00.707-1.707zM29 15c-.221 0-5.451.038-8.707 3.293A.999.999 0 0021 20c.013 0 .024-.007.036-.007-.016.167-.036.333-.036.507 0 1.934 1.119 3.5 2.5 3.5s2.5-1.566 2.5-3.5c0-1.129-.389-2.123-.982-2.763A13.928 13.928 0 0129.002 17 1 1 0 0029 15z" fill="#000"></path></g><defs><clipPath id="prefix__clip0"><path fill="#fff" d="M0 0h36v36H0z"></path></clipPath></defs><g clip-path="url(#prefix__clip0)"><path d="M18 25.747c5.297 0 6.243 3.683 6.282 3.848a.61.61 0 01-.275.665.567.567 0 01-.701-.097c-.014-.014-1.582-1.521-5.305-1.521s-5.291 1.506-5.306 1.522a.573.573 0 01-.703.092.6.6 0 01-.274-.661c.037-.158.991-3.848 6.282-3.848z" fill="#000"></path></g><defs><clipPath id="prefix__clip0"><path fill="#fff" d="M0 0h36v36H0z"></path></clipPath></defs></svg>