<svg xmlns="http://www.w3.org/2000/svg" viewBox="0 0 36 36" height="160" width="160"><path d="M18 36c9.941 0 18-8.059 18-18S27.941 0 18 0 0 8.059 0 18s8.059 18 18 18z" fill="#DC143C"></path><path d="M28.312 15.612a.503.503 0 00-.61-.014c-.012.009-1.261.902-3.702.902-2.44 0-3.69-.893-3.7-.9a.5.5 0 00-.757.603c.06.135 1.5 3.297 4.457 3.297 2.958 0 4.397-3.162 4.457-3.297a.498.498 0 00-.145-.591zm-12.61-.014c-.012.009-1.26.902-3.702.902-2.441 0-3.69-.893-3.7-.9a.5.5 0 00-.757.603c.06.135 1.5 3.297 4.457 3.297 2.958 0 4.397-3.162 4.457-3.297a.501.501 0 00-.755-.605zM29.001 13a.998.998 0 01-.801-.4c-2.592-3.456-6.961-2.628-7.004-2.62a.998.998 0 01-1.177-.784 1.001 1.001 0 01.784-1.177c.231-.047 5.657-1.072 8.996 3.38A1 1 0 0129.001 13zM6.999 13a1 1 0 01-.799-1.6c3.339-4.454 8.766-3.426 8.996-3.38a1.001 1.001 0 01-.39 1.962C14.62 9.947 10.37 9.174 7.8 12.6a.998.998 0 01-.801.4z" fill="#000"></path><path d="M18 24c-4 0-5 4-5 4s1-1 5-1 5 1 5 1-1-4-5-4z" fill="#000"></path></svg>