<svg xmlns="http://www.w3.org/2000/svg" viewBox="0 0 36 36" height="160" width="160"><path d="M18 36c9.941 0 18-8.059 18-18S27.941 0 18 0 0 8.059 0 18s8.059 18 18 18z" fill="#FFD700"></path><path d="M12 17c1.38 0 2.5-1.567 2.5-3.5S13.38 10 12 10s-2.5 1.567-2.5 3.5S10.62 17 12 17zM24 17c1.38 0 2.5-1.567 2.5-3.5S25.38 10 24 10s-2.5 1.567-2.5 3.5S22.62 17 24 17z" fill="#000"></path><path d="M22.657 23.637a.513.513 0 01.597-.06.497.497 0 01.231.544C23.474 24.165 22.34 28.5 18 28.5s-5.474-4.335-5.484-4.379a.5.5 0 01.838-.475s1.005.854 4.646.854c3.644 0 4.647-.855 4.657-.863z" fill="#000"></path></svg>