<svg xmlns="http://www.w3.org/2000/svg" viewBox="0 0 36 36" height="160" width="160"><g clip-path="url(#prefix__clip0)"><path d="M35.99 18c0 9.941-8.059 18-18 18-9.94 0-18-8.059-18-18 0-9.94 8.06-18 18-18s18 8.06 18 18z" fill="#00FF00"></path></g><defs><clipPath id="prefix__clip0"><path fill="#fff" d="M0 0h36v36H0z"></path></clipPath></defs><path d="M18 22c-3.623 0-6.027-.422-9-1-.679-.131-2 0-2 2 0 4 4.595 9 11 9 6.404 0 11-5 11-9 0-2-1.321-2.132-2-2-2.973.578-5.377 1-9 1z" fill="#000"></path><path d="M9 23s3 1 9 1 9-1 9-1-2 4-9 4-9-4-9-4z" fill="#fff"></path><path d="M16 18c-.419 0-.809-.265-.949-.684C14.848 16.717 14.034 15 13 15c-1.062 0-1.888 1.827-2.051 2.316a1 1 0 11-1.897-.633C9.177 16.307 10.356 13 13 13s3.823 3.307 3.949 3.684A1 1 0 0116 18zm10 0a.999.999 0 01-.948-.684C24.849 16.717 24.033 15 23 15c-1.062 0-1.889 1.827-2.052 2.316a1 1 0 01-1.897-.633C19.177 16.307 20.355 13 23 13c2.645 0 3.823 3.307 3.948 3.684A1 1 0 0126 18z" fill="#000"></path></svg>